# xmcd
#
# Track frame offsets:
#	150
#	8893
#	22536
#	33789
#	41326
#	53837
#	66261
#	77699
#	87651
#	98570
#	108659
#	119786
#	129106
#	146353
#
# Disc length: 2069 seconds
#
# Revision: 0
# Processed by: cddbd v1.5.1PL2 Copyright (c) Steve Scherf et al.
# Submitted via: dBpowerAMP V4.0
#
DISCID=a908130e
DTITLE=Domestic Bumblebees - Let's Play A Little While
DYEAR=2006
DGENRE=Rockabilly
TTITLE0=01 Bumblebee Boogie
TTITLE1=02 Pretty Baby
TTITLE2=03 4:th and Beale
TTITLE3=04 She Likes To Boogie Real Low
TTITLE4=05 Play A Litlle While
TTITLE5=06 You Ain't Too Old
TTITLE6=07 Just Wailing
TTITLE7=08 Too Drunk To Rock
TTITLE8=09 El Paso Rock
TTITLE9=10 She's A Smoocher
TTITLE10=11 I Gotta Get Up
TTITLE11=12 Gee I Wish
TTITLE12=13 Rock 'n' Roll Ball
TTITLE13=14 The Mud
EXTD=
EXTT0=
EXTT1=
EXTT2=
EXTT3=
EXTT4=
EXTT5=
EXTT6=
EXTT7=
EXTT8=
EXTT9=
EXTT10=
EXTT11=
EXTT12=
EXTT13=
PLAYORDER=
